<mxfile host="app.diagrams.net" modified="2024-02-21T15:44:48.790Z" agent="Mozilla/5.0 (Macintosh; Intel Mac OS X 10_15_7) AppleWebKit/605.1.15 (KHTML, like Gecko) Version/15.1 Safari/605.1.15" etag="wGRSfTV_MdnpQtAHlN1l" version="23.1.5" type="github">
  <diagram name="Page-1" id="IdtpOZFep_UhcnWH5yyl">
    <mxGraphModel dx="2044" dy="675" grid="1" gridSize="10" guides="1" tooltips="1" connect="1" arrows="1" fold="1" page="1" pageScale="1" pageWidth="850" pageHeight="1100" math="0" shadow="0">
      <root>
        <mxCell id="0" />
        <mxCell id="1" parent="0" />
        <mxCell id="ismh5ygb1BmKkFm3RHkI-1" value="&lt;u&gt;&lt;font style=&quot;font-size: 10px;&quot;&gt;storeID&lt;/font&gt;&lt;/u&gt;" style="html=1;whiteSpace=wrap;" parent="1" vertex="1">
          <mxGeometry x="30" y="60" width="80" height="30" as="geometry" />
        </mxCell>
        <mxCell id="ismh5ygb1BmKkFm3RHkI-2" value="&lt;font style=&quot;font-size: 10px;&quot;&gt;storeState&lt;/font&gt;" style="html=1;whiteSpace=wrap;" parent="1" vertex="1">
          <mxGeometry x="110" y="60" width="80" height="30" as="geometry" />
        </mxCell>
        <mxCell id="ismh5ygb1BmKkFm3RHkI-3" value="&lt;font style=&quot;font-size: 10px;&quot;&gt;storeCity&lt;/font&gt;" style="html=1;whiteSpace=wrap;" parent="1" vertex="1">
          <mxGeometry x="190" y="60" width="80" height="30" as="geometry" />
        </mxCell>
        <mxCell id="ismh5ygb1BmKkFm3RHkI-4" value="&lt;font style=&quot;font-size: 10px;&quot;&gt;storeZip&lt;/font&gt;" style="html=1;whiteSpace=wrap;" parent="1" vertex="1">
          <mxGeometry x="270" y="60" width="80" height="30" as="geometry" />
        </mxCell>
        <mxCell id="ismh5ygb1BmKkFm3RHkI-5" value="&lt;font style=&quot;font-size: 10px;&quot;&gt;storeAddress&lt;/font&gt;" style="html=1;whiteSpace=wrap;" parent="1" vertex="1">
          <mxGeometry x="350" y="60" width="80" height="30" as="geometry" />
        </mxCell>
        <mxCell id="ismh5ygb1BmKkFm3RHkI-6" value="&lt;u&gt;&lt;font style=&quot;font-size: 10px;&quot;&gt;employeeID&lt;/font&gt;&lt;/u&gt;" style="html=1;whiteSpace=wrap;" parent="1" vertex="1">
          <mxGeometry x="30" y="130" width="70" height="30" as="geometry" />
        </mxCell>
        <mxCell id="ismh5ygb1BmKkFm3RHkI-7" value="&lt;font style=&quot;font-size: 10px;&quot;&gt;positionID&lt;/font&gt;" style="html=1;whiteSpace=wrap;" parent="1" vertex="1">
          <mxGeometry x="100" y="130" width="60" height="30" as="geometry" />
        </mxCell>
        <mxCell id="ismh5ygb1BmKkFm3RHkI-8" value="&lt;font style=&quot;font-size: 10px;&quot;&gt;firstName&lt;/font&gt;" style="html=1;whiteSpace=wrap;" parent="1" vertex="1">
          <mxGeometry x="160" y="130" width="70" height="30" as="geometry" />
        </mxCell>
        <mxCell id="ismh5ygb1BmKkFm3RHkI-9" value="&lt;font style=&quot;font-size: 10px;&quot;&gt;lastName&lt;/font&gt;" style="html=1;whiteSpace=wrap;" parent="1" vertex="1">
          <mxGeometry x="230" y="130" width="70" height="30" as="geometry" />
        </mxCell>
        <mxCell id="ismh5ygb1BmKkFm3RHkI-10" value="&lt;font style=&quot;font-size: 10px;&quot;&gt;emailAddress&lt;/font&gt;" style="html=1;whiteSpace=wrap;" parent="1" vertex="1">
          <mxGeometry x="300" y="130" width="80" height="30" as="geometry" />
        </mxCell>
        <mxCell id="ismh5ygb1BmKkFm3RHkI-13" value="&lt;font style=&quot;font-size: 10px;&quot;&gt;doB&lt;/font&gt;" style="html=1;whiteSpace=wrap;" parent="1" vertex="1">
          <mxGeometry x="380" y="130" width="70" height="30" as="geometry" />
        </mxCell>
        <mxCell id="ismh5ygb1BmKkFm3RHkI-14" value="&lt;font style=&quot;font-size: 10px;&quot;&gt;hireDate&lt;/font&gt;" style="html=1;whiteSpace=wrap;" parent="1" vertex="1">
          <mxGeometry x="450" y="130" width="80" height="30" as="geometry" />
        </mxCell>
        <mxCell id="ismh5ygb1BmKkFm3RHkI-15" value="&lt;font style=&quot;font-size: 10px;&quot;&gt;positionName&lt;/font&gt;" style="html=1;whiteSpace=wrap;" parent="1" vertex="1">
          <mxGeometry x="530" y="130" width="80" height="30" as="geometry" />
        </mxCell>
        <mxCell id="ismh5ygb1BmKkFm3RHkI-16" value="&lt;font style=&quot;font-size: 10px;&quot;&gt;payRate&lt;/font&gt;" style="html=1;whiteSpace=wrap;" parent="1" vertex="1">
          <mxGeometry x="610" y="130" width="70" height="30" as="geometry" />
        </mxCell>
        <mxCell id="ismh5ygb1BmKkFm3RHkI-17" value="&lt;u&gt;&lt;font style=&quot;font-size: 10px;&quot;&gt;customerID&lt;/font&gt;&lt;/u&gt;" style="html=1;whiteSpace=wrap;" parent="1" vertex="1">
          <mxGeometry x="30" y="210" width="60" height="30" as="geometry" />
        </mxCell>
        <mxCell id="ismh5ygb1BmKkFm3RHkI-18" value="&lt;font style=&quot;font-size: 10px;&quot;&gt;customerPhoneNumber&lt;/font&gt;" style="html=1;whiteSpace=wrap;" parent="1" vertex="1">
          <mxGeometry x="90" y="210" width="110" height="30" as="geometry" />
        </mxCell>
        <mxCell id="ismh5ygb1BmKkFm3RHkI-19" value="&lt;font style=&quot;font-size: 10px;&quot;&gt;customerEmail&lt;/font&gt;" style="html=1;whiteSpace=wrap;" parent="1" vertex="1">
          <mxGeometry x="200" y="210" width="70" height="30" as="geometry" />
        </mxCell>
        <mxCell id="ismh5ygb1BmKkFm3RHkI-20" value="&lt;font style=&quot;font-size: 10px;&quot;&gt;feedbackID&lt;/font&gt;" style="html=1;whiteSpace=wrap;" parent="1" vertex="1">
          <mxGeometry x="270" y="210" width="70" height="30" as="geometry" />
        </mxCell>
        <mxCell id="MsWy3fw3a9ld81Vvvftm-3" style="edgeStyle=orthogonalEdgeStyle;rounded=0;orthogonalLoop=1;jettySize=auto;html=1;exitX=0.5;exitY=0;exitDx=0;exitDy=0;entryX=0.5;entryY=1;entryDx=0;entryDy=0;" edge="1" parent="1" source="ismh5ygb1BmKkFm3RHkI-21" target="ismh5ygb1BmKkFm3RHkI-6">
          <mxGeometry relative="1" as="geometry" />
        </mxCell>
        <mxCell id="ismh5ygb1BmKkFm3RHkI-21" value="&lt;font style=&quot;font-size: 10px;&quot;&gt;employeeID&lt;/font&gt;" style="html=1;whiteSpace=wrap;" parent="1" vertex="1">
          <mxGeometry x="340" y="210" width="70" height="30" as="geometry" />
        </mxCell>
        <mxCell id="ismh5ygb1BmKkFm3RHkI-22" value="&lt;font style=&quot;font-size: 10px;&quot;&gt;feedbackDate&lt;/font&gt;" style="html=1;whiteSpace=wrap;" parent="1" vertex="1">
          <mxGeometry x="410" y="210" width="80" height="30" as="geometry" />
        </mxCell>
        <mxCell id="ismh5ygb1BmKkFm3RHkI-23" value="&lt;font style=&quot;font-size: 10px;&quot;&gt;comment&lt;/font&gt;" style="html=1;whiteSpace=wrap;" parent="1" vertex="1">
          <mxGeometry x="490" y="210" width="60" height="30" as="geometry" />
        </mxCell>
        <mxCell id="ismh5ygb1BmKkFm3RHkI-24" value="&lt;font style=&quot;font-size: 10px;&quot;&gt;rating&lt;/font&gt;" style="html=1;whiteSpace=wrap;" parent="1" vertex="1">
          <mxGeometry x="550" y="210" width="60" height="30" as="geometry" />
        </mxCell>
        <mxCell id="MsWy3fw3a9ld81Vvvftm-24" style="edgeStyle=orthogonalEdgeStyle;rounded=0;orthogonalLoop=1;jettySize=auto;html=1;exitX=0.5;exitY=1;exitDx=0;exitDy=0;entryX=0.5;entryY=1;entryDx=0;entryDy=0;" edge="1" parent="1" source="ismh5ygb1BmKkFm3RHkI-25" target="ismh5ygb1BmKkFm3RHkI-62">
          <mxGeometry relative="1" as="geometry">
            <Array as="points">
              <mxPoint x="645" y="260" />
              <mxPoint x="820" y="260" />
              <mxPoint x="820" y="660" />
              <mxPoint x="70" y="660" />
            </Array>
          </mxGeometry>
        </mxCell>
        <mxCell id="ismh5ygb1BmKkFm3RHkI-25" value="&lt;font style=&quot;font-size: 10px;&quot;&gt;transactionID&lt;/font&gt;" style="html=1;whiteSpace=wrap;" parent="1" vertex="1">
          <mxGeometry x="610" y="210" width="70" height="30" as="geometry" />
        </mxCell>
        <mxCell id="ismh5ygb1BmKkFm3RHkI-26" value="&lt;u&gt;&lt;font style=&quot;font-size: 10px;&quot;&gt;inventoryID&lt;/font&gt;&lt;/u&gt;" style="html=1;whiteSpace=wrap;" parent="1" vertex="1">
          <mxGeometry x="30" y="280" width="70" height="30" as="geometry" />
        </mxCell>
        <mxCell id="MsWy3fw3a9ld81Vvvftm-6" style="edgeStyle=orthogonalEdgeStyle;rounded=0;orthogonalLoop=1;jettySize=auto;html=1;exitX=0.5;exitY=0;exitDx=0;exitDy=0;entryX=0.5;entryY=1;entryDx=0;entryDy=0;" edge="1" parent="1" source="ismh5ygb1BmKkFm3RHkI-27" target="ismh5ygb1BmKkFm3RHkI-1">
          <mxGeometry relative="1" as="geometry">
            <Array as="points">
              <mxPoint x="130" y="270" />
              <mxPoint x="750" y="270" />
              <mxPoint x="750" y="90" />
            </Array>
          </mxGeometry>
        </mxCell>
        <mxCell id="ismh5ygb1BmKkFm3RHkI-27" value="&lt;font style=&quot;font-size: 10px;&quot;&gt;storeID&lt;/font&gt;" style="html=1;whiteSpace=wrap;" parent="1" vertex="1">
          <mxGeometry x="100" y="280" width="60" height="30" as="geometry" />
        </mxCell>
        <mxCell id="ismh5ygb1BmKkFm3RHkI-28" value="&lt;font style=&quot;font-size: 10px;&quot;&gt;departmentName&lt;/font&gt;" style="html=1;whiteSpace=wrap;" parent="1" vertex="1">
          <mxGeometry x="160" y="280" width="100" height="30" as="geometry" />
        </mxCell>
        <mxCell id="ismh5ygb1BmKkFm3RHkI-29" value="&lt;font style=&quot;font-size: 10px;&quot;&gt;price&lt;/font&gt;" style="html=1;whiteSpace=wrap;" parent="1" vertex="1">
          <mxGeometry x="260" y="280" width="60" height="30" as="geometry" />
        </mxCell>
        <mxCell id="ismh5ygb1BmKkFm3RHkI-30" value="&lt;font style=&quot;font-size: 10px;&quot;&gt;inventoryName&lt;/font&gt;" style="html=1;whiteSpace=wrap;" parent="1" vertex="1">
          <mxGeometry x="320" y="280" width="90" height="30" as="geometry" />
        </mxCell>
        <mxCell id="ismh5ygb1BmKkFm3RHkI-31" value="&lt;font style=&quot;font-size: 10px;&quot;&gt;currentStock&lt;/font&gt;" style="html=1;whiteSpace=wrap;" parent="1" vertex="1">
          <mxGeometry x="410" y="280" width="80" height="30" as="geometry" />
        </mxCell>
        <mxCell id="ismh5ygb1BmKkFm3RHkI-32" value="&lt;font style=&quot;font-size: 10px;&quot;&gt;margin&lt;/font&gt;" style="html=1;whiteSpace=wrap;" parent="1" vertex="1">
          <mxGeometry x="490" y="280" width="80" height="30" as="geometry" />
        </mxCell>
        <mxCell id="ismh5ygb1BmKkFm3RHkI-35" value="&lt;u&gt;&lt;font style=&quot;font-size: 10px;&quot;&gt;reorderID&lt;/font&gt;&lt;/u&gt;" style="html=1;whiteSpace=wrap;" parent="1" vertex="1">
          <mxGeometry x="30" y="360" width="70" height="30" as="geometry" />
        </mxCell>
        <mxCell id="MsWy3fw3a9ld81Vvvftm-26" style="edgeStyle=orthogonalEdgeStyle;rounded=0;orthogonalLoop=1;jettySize=auto;html=1;exitX=0.5;exitY=1;exitDx=0;exitDy=0;entryX=0.5;entryY=1;entryDx=0;entryDy=0;" edge="1" parent="1" source="ismh5ygb1BmKkFm3RHkI-36" target="ismh5ygb1BmKkFm3RHkI-44">
          <mxGeometry relative="1" as="geometry">
            <Array as="points">
              <mxPoint x="140" y="400" />
              <mxPoint x="330" y="400" />
              <mxPoint x="330" y="490" />
              <mxPoint x="70" y="490" />
            </Array>
          </mxGeometry>
        </mxCell>
        <mxCell id="ismh5ygb1BmKkFm3RHkI-36" value="&lt;font style=&quot;font-size: 10px;&quot;&gt;supplierID&lt;/font&gt;" style="html=1;whiteSpace=wrap;" parent="1" vertex="1">
          <mxGeometry x="100" y="360" width="80" height="30" as="geometry" />
        </mxCell>
        <mxCell id="MsWy3fw3a9ld81Vvvftm-8" style="edgeStyle=orthogonalEdgeStyle;rounded=0;orthogonalLoop=1;jettySize=auto;html=1;exitX=0.5;exitY=0;exitDx=0;exitDy=0;entryX=0.5;entryY=1;entryDx=0;entryDy=0;" edge="1" parent="1" source="ismh5ygb1BmKkFm3RHkI-37" target="ismh5ygb1BmKkFm3RHkI-1">
          <mxGeometry relative="1" as="geometry">
            <Array as="points">
              <mxPoint x="215" y="320" />
              <mxPoint x="10" y="320" />
              <mxPoint x="10" y="90" />
            </Array>
          </mxGeometry>
        </mxCell>
        <mxCell id="ismh5ygb1BmKkFm3RHkI-37" value="&lt;font style=&quot;font-size: 10px;&quot;&gt;storeID&lt;/font&gt;" style="html=1;whiteSpace=wrap;" parent="1" vertex="1">
          <mxGeometry x="180" y="360" width="70" height="30" as="geometry" />
        </mxCell>
        <mxCell id="ismh5ygb1BmKkFm3RHkI-38" value="&lt;font style=&quot;font-size: 10px;&quot;&gt;reorderQuanitiy&lt;/font&gt;" style="html=1;whiteSpace=wrap;" parent="1" vertex="1">
          <mxGeometry x="250" y="360" width="80" height="30" as="geometry" />
        </mxCell>
        <mxCell id="ismh5ygb1BmKkFm3RHkI-39" value="&lt;font style=&quot;font-size: 10px;&quot;&gt;frequency&lt;/font&gt;" style="html=1;whiteSpace=wrap;" parent="1" vertex="1">
          <mxGeometry x="330" y="360" width="80" height="30" as="geometry" />
        </mxCell>
        <mxCell id="ismh5ygb1BmKkFm3RHkI-40" value="&lt;font style=&quot;font-size: 10px;&quot;&gt;currentStock&lt;/font&gt;" style="html=1;whiteSpace=wrap;" parent="1" vertex="1">
          <mxGeometry x="410" y="360" width="80" height="30" as="geometry" />
        </mxCell>
        <mxCell id="ismh5ygb1BmKkFm3RHkI-44" value="&lt;u&gt;&lt;font style=&quot;font-size: 10px;&quot;&gt;supplierID&lt;/font&gt;&lt;/u&gt;" style="html=1;whiteSpace=wrap;" parent="1" vertex="1">
          <mxGeometry x="30" y="440" width="80" height="30" as="geometry" />
        </mxCell>
        <mxCell id="ismh5ygb1BmKkFm3RHkI-45" value="&lt;font style=&quot;font-size: 10px;&quot;&gt;supplierPhone&lt;/font&gt;" style="html=1;whiteSpace=wrap;" parent="1" vertex="1">
          <mxGeometry x="110" y="440" width="80" height="30" as="geometry" />
        </mxCell>
        <mxCell id="ismh5ygb1BmKkFm3RHkI-46" value="&lt;font style=&quot;font-size: 10px;&quot;&gt;supplierEmail&lt;/font&gt;" style="html=1;whiteSpace=wrap;" parent="1" vertex="1">
          <mxGeometry x="190" y="440" width="80" height="30" as="geometry" />
        </mxCell>
        <mxCell id="ismh5ygb1BmKkFm3RHkI-53" value="&lt;u&gt;&lt;font style=&quot;font-size: 10px;&quot;&gt;ssID&lt;/font&gt;&lt;/u&gt;" style="html=1;whiteSpace=wrap;" parent="1" vertex="1">
          <mxGeometry x="30" y="520" width="80" height="30" as="geometry" />
        </mxCell>
        <mxCell id="ismh5ygb1BmKkFm3RHkI-54" value="&lt;font style=&quot;font-size: 10px;&quot;&gt;ssDates&lt;/font&gt;" style="html=1;whiteSpace=wrap;" parent="1" vertex="1">
          <mxGeometry x="110" y="520" width="80" height="30" as="geometry" />
        </mxCell>
        <mxCell id="MsWy3fw3a9ld81Vvvftm-25" style="edgeStyle=orthogonalEdgeStyle;rounded=0;orthogonalLoop=1;jettySize=auto;html=1;exitX=0.5;exitY=0;exitDx=0;exitDy=0;entryX=0.5;entryY=1;entryDx=0;entryDy=0;" edge="1" parent="1" source="ismh5ygb1BmKkFm3RHkI-55" target="ismh5ygb1BmKkFm3RHkI-44">
          <mxGeometry relative="1" as="geometry" />
        </mxCell>
        <mxCell id="ismh5ygb1BmKkFm3RHkI-55" value="&lt;font style=&quot;font-size: 10px;&quot;&gt;supplierID&lt;/font&gt;" style="html=1;whiteSpace=wrap;" parent="1" vertex="1">
          <mxGeometry x="190" y="520" width="80" height="30" as="geometry" />
        </mxCell>
        <mxCell id="MsWy3fw3a9ld81Vvvftm-9" style="edgeStyle=orthogonalEdgeStyle;rounded=0;orthogonalLoop=1;jettySize=auto;html=1;exitX=0.5;exitY=0;exitDx=0;exitDy=0;entryX=0.5;entryY=1;entryDx=0;entryDy=0;" edge="1" parent="1" source="ismh5ygb1BmKkFm3RHkI-56" target="ismh5ygb1BmKkFm3RHkI-1">
          <mxGeometry relative="1" as="geometry">
            <Array as="points">
              <mxPoint x="310" y="480" />
              <mxPoint x="20" y="480" />
              <mxPoint x="20" y="90" />
            </Array>
          </mxGeometry>
        </mxCell>
        <mxCell id="ismh5ygb1BmKkFm3RHkI-56" value="&lt;font style=&quot;font-size: 10px;&quot;&gt;storeID&lt;/font&gt;" style="html=1;whiteSpace=wrap;" parent="1" vertex="1">
          <mxGeometry x="270" y="520" width="80" height="30" as="geometry" />
        </mxCell>
        <mxCell id="ismh5ygb1BmKkFm3RHkI-62" value="&lt;u&gt;&lt;font style=&quot;font-size: 10px;&quot;&gt;transactionID&lt;/font&gt;&lt;/u&gt;" style="html=1;whiteSpace=wrap;" parent="1" vertex="1">
          <mxGeometry x="30" y="610" width="80" height="30" as="geometry" />
        </mxCell>
        <mxCell id="MsWy3fw3a9ld81Vvvftm-22" style="edgeStyle=orthogonalEdgeStyle;rounded=0;orthogonalLoop=1;jettySize=auto;html=1;exitX=0.5;exitY=0;exitDx=0;exitDy=0;" edge="1" parent="1" source="ismh5ygb1BmKkFm3RHkI-63" target="ismh5ygb1BmKkFm3RHkI-17">
          <mxGeometry relative="1" as="geometry">
            <Array as="points">
              <mxPoint x="150" y="580" />
              <mxPoint x="-20" y="580" />
              <mxPoint x="-20" y="225" />
            </Array>
          </mxGeometry>
        </mxCell>
        <mxCell id="ismh5ygb1BmKkFm3RHkI-63" value="&lt;font style=&quot;font-size: 10px;&quot;&gt;customerID&lt;/font&gt;" style="html=1;whiteSpace=wrap;" parent="1" vertex="1">
          <mxGeometry x="110" y="610" width="80" height="30" as="geometry" />
        </mxCell>
        <mxCell id="ismh5ygb1BmKkFm3RHkI-64" value="&lt;font style=&quot;font-size: 10px;&quot;&gt;timeStamp&lt;/font&gt;" style="html=1;whiteSpace=wrap;" parent="1" vertex="1">
          <mxGeometry x="190" y="610" width="80" height="30" as="geometry" />
        </mxCell>
        <mxCell id="MsWy3fw3a9ld81Vvvftm-4" style="edgeStyle=orthogonalEdgeStyle;rounded=0;orthogonalLoop=1;jettySize=auto;html=1;exitX=0.5;exitY=0;exitDx=0;exitDy=0;entryX=0.5;entryY=1;entryDx=0;entryDy=0;" edge="1" parent="1" source="ismh5ygb1BmKkFm3RHkI-65" target="ismh5ygb1BmKkFm3RHkI-6">
          <mxGeometry relative="1" as="geometry">
            <Array as="points">
              <mxPoint x="310" y="580" />
              <mxPoint x="540" y="580" />
              <mxPoint x="540" y="385" />
              <mxPoint x="780" y="385" />
              <mxPoint x="780" y="170" />
              <mxPoint x="65" y="170" />
            </Array>
          </mxGeometry>
        </mxCell>
        <mxCell id="ismh5ygb1BmKkFm3RHkI-65" value="&lt;font style=&quot;font-size: 10px;&quot;&gt;employeeID&lt;/font&gt;" style="html=1;whiteSpace=wrap;" parent="1" vertex="1">
          <mxGeometry x="270" y="610" width="80" height="30" as="geometry" />
        </mxCell>
        <mxCell id="MsWy3fw3a9ld81Vvvftm-10" style="edgeStyle=orthogonalEdgeStyle;rounded=0;orthogonalLoop=1;jettySize=auto;html=1;exitX=0.5;exitY=0;exitDx=0;exitDy=0;entryX=0.5;entryY=1;entryDx=0;entryDy=0;" edge="1" parent="1" source="ismh5ygb1BmKkFm3RHkI-66" target="ismh5ygb1BmKkFm3RHkI-1">
          <mxGeometry relative="1" as="geometry">
            <Array as="points">
              <mxPoint x="390" y="560" />
              <mxPoint x="10" y="560" />
              <mxPoint x="10" y="90" />
            </Array>
          </mxGeometry>
        </mxCell>
        <mxCell id="ismh5ygb1BmKkFm3RHkI-66" value="&lt;font style=&quot;font-size: 10px;&quot;&gt;storeID&lt;/font&gt;" style="html=1;whiteSpace=wrap;" parent="1" vertex="1">
          <mxGeometry x="350" y="610" width="80" height="30" as="geometry" />
        </mxCell>
        <mxCell id="MsWy3fw3a9ld81Vvvftm-23" style="edgeStyle=orthogonalEdgeStyle;rounded=0;orthogonalLoop=1;jettySize=auto;html=1;exitX=0.5;exitY=0;exitDx=0;exitDy=0;entryX=0.5;entryY=1;entryDx=0;entryDy=0;" edge="1" parent="1" source="ismh5ygb1BmKkFm3RHkI-67" target="ismh5ygb1BmKkFm3RHkI-26">
          <mxGeometry relative="1" as="geometry">
            <Array as="points">
              <mxPoint x="470" y="460" />
              <mxPoint x="510" y="460" />
              <mxPoint x="510" y="330" />
              <mxPoint x="65" y="330" />
            </Array>
          </mxGeometry>
        </mxCell>
        <mxCell id="ismh5ygb1BmKkFm3RHkI-67" value="&lt;font style=&quot;font-size: 10px;&quot;&gt;inventoryID&lt;/font&gt;" style="html=1;whiteSpace=wrap;" parent="1" vertex="1">
          <mxGeometry x="430" y="610" width="80" height="30" as="geometry" />
        </mxCell>
        <mxCell id="ismh5ygb1BmKkFm3RHkI-68" value="&lt;font style=&quot;font-size: 10px;&quot;&gt;transactionQuantity&lt;/font&gt;" style="html=1;whiteSpace=wrap;" parent="1" vertex="1">
          <mxGeometry x="510" y="610" width="120" height="30" as="geometry" />
        </mxCell>
        <mxCell id="ismh5ygb1BmKkFm3RHkI-69" value="&lt;font style=&quot;font-size: 10px;&quot;&gt;itemPrice&lt;/font&gt;" style="html=1;whiteSpace=wrap;" parent="1" vertex="1">
          <mxGeometry x="630" y="610" width="80" height="30" as="geometry" />
        </mxCell>
        <mxCell id="ismh5ygb1BmKkFm3RHkI-70" value="&lt;font style=&quot;font-size: 10px;&quot;&gt;itemProfit&lt;/font&gt;" style="html=1;whiteSpace=wrap;" parent="1" vertex="1">
          <mxGeometry x="710" y="610" width="80" height="30" as="geometry" />
        </mxCell>
        <mxCell id="MsWy3fw3a9ld81Vvvftm-5" style="edgeStyle=orthogonalEdgeStyle;rounded=0;orthogonalLoop=1;jettySize=auto;html=1;exitX=0.5;exitY=0;exitDx=0;exitDy=0;entryX=0.5;entryY=1;entryDx=0;entryDy=0;" edge="1" parent="1" source="ismh5ygb1BmKkFm3RHkI-71" target="ismh5ygb1BmKkFm3RHkI-1">
          <mxGeometry relative="1" as="geometry">
            <Array as="points">
              <mxPoint x="710" y="100" />
              <mxPoint x="70" y="100" />
            </Array>
          </mxGeometry>
        </mxCell>
        <mxCell id="ismh5ygb1BmKkFm3RHkI-71" value="&lt;font style=&quot;font-size: 10px;&quot;&gt;storeID&lt;/font&gt;" style="html=1;whiteSpace=wrap;" parent="1" vertex="1">
          <mxGeometry x="680" y="210" width="60" height="30" as="geometry" />
        </mxCell>
        <mxCell id="MsWy3fw3a9ld81Vvvftm-11" value="&lt;b&gt;Store&lt;/b&gt;" style="text;html=1;align=center;verticalAlign=middle;whiteSpace=wrap;rounded=0;" vertex="1" parent="1">
          <mxGeometry x="20" y="30" width="60" height="30" as="geometry" />
        </mxCell>
        <mxCell id="MsWy3fw3a9ld81Vvvftm-12" value="&lt;b&gt;Employee&lt;/b&gt;" style="text;html=1;align=center;verticalAlign=middle;whiteSpace=wrap;rounded=0;" vertex="1" parent="1">
          <mxGeometry x="30" y="100" width="60" height="30" as="geometry" />
        </mxCell>
        <mxCell id="MsWy3fw3a9ld81Vvvftm-13" value="&lt;b&gt;Customer&lt;/b&gt;" style="text;html=1;align=center;verticalAlign=middle;whiteSpace=wrap;rounded=0;" vertex="1" parent="1">
          <mxGeometry x="30" y="180" width="60" height="30" as="geometry" />
        </mxCell>
        <mxCell id="MsWy3fw3a9ld81Vvvftm-15" value="&lt;b&gt;Inventory&lt;/b&gt;" style="text;html=1;align=center;verticalAlign=middle;whiteSpace=wrap;rounded=0;" vertex="1" parent="1">
          <mxGeometry x="30" y="250" width="60" height="30" as="geometry" />
        </mxCell>
        <mxCell id="MsWy3fw3a9ld81Vvvftm-16" value="&lt;b&gt;Supplier&lt;/b&gt;" style="text;html=1;align=center;verticalAlign=middle;whiteSpace=wrap;rounded=0;" vertex="1" parent="1">
          <mxGeometry x="30" y="410" width="60" height="30" as="geometry" />
        </mxCell>
        <mxCell id="MsWy3fw3a9ld81Vvvftm-17" value="&lt;b&gt;AutoReorder&lt;/b&gt;" style="text;html=1;align=center;verticalAlign=middle;whiteSpace=wrap;rounded=0;" vertex="1" parent="1">
          <mxGeometry x="30" y="330" width="80" height="30" as="geometry" />
        </mxCell>
        <mxCell id="MsWy3fw3a9ld81Vvvftm-20" value="&lt;b&gt;StockShipments&lt;/b&gt;" style="text;html=1;align=center;verticalAlign=middle;whiteSpace=wrap;rounded=0;" vertex="1" parent="1">
          <mxGeometry x="30" y="490" width="100" height="30" as="geometry" />
        </mxCell>
        <mxCell id="MsWy3fw3a9ld81Vvvftm-21" value="&lt;b&gt;Transaction&lt;br&gt;&lt;/b&gt;" style="text;html=1;align=center;verticalAlign=middle;whiteSpace=wrap;rounded=0;" vertex="1" parent="1">
          <mxGeometry x="30" y="580" width="70" height="30" as="geometry" />
        </mxCell>
        <mxCell id="MsWy3fw3a9ld81Vvvftm-27" value="&lt;b&gt;General Store Referential Integrity Diagram&amp;nbsp;&lt;/b&gt;" style="text;html=1;align=center;verticalAlign=middle;whiteSpace=wrap;rounded=0;" vertex="1" parent="1">
          <mxGeometry x="300" y="10" width="260" height="30" as="geometry" />
        </mxCell>
      </root>
    </mxGraphModel>
  </diagram>
</mxfile>
